# xmcd CD database file
# Copyright (C) 1996 Ti Kan
#
# Track frame offsets:
# 	182
# 	10722
# 	23570
# 	34507
# 	47492
# 	59297
# 	72605
# 	84955
# 	97295
# 	106632
#
# Disc length: 1588 seconds
#
# Revision: 1
# Processed by: cddbd v1.4b41PL1 Copyright (c) Steve Scherf et al.
# Submitted via: DiscPlay 3.4.1
#
DISCID=7006320a
DTITLE=Boxcar Willie With The Skeletons - Rocky Box: Rockabilly - Boxcar Willie
DTITLE=With The Skeletons
DYEAR=1900
DGENRE=
TTITLE0=Rockin' Bones
TTITLE1=Mystery Train
TTITLE2=No Help Wanted
TTITLE3=Memphis
TTITLE4=Train Of Love
TTITLE5=Boney Maroney
TTITLE6=Maybelline
TTITLE7=Pipeliner Blues
TTITLE8=Hank, You're Like Your Daddy
TTITLE9=Achy Breaky Heart
EXTD=
EXTT0=
EXTT1=
EXTT2=
EXTT3=
EXTT4=
EXTT5=
EXTT6=
EXTT7=
EXTT8=
EXTT9=
PLAYORDER=
